  0
SECTION
  2
HEADER
  9
$ANGBASE
  50
0.0
  9
$ANGDIR
  70
1
  9
$MEASUREMENT
  70
1
  9
$INSUNITS
  70
4
  0
ENDSEC
  0
SECTION
  2
TABLES
  0
TABLE
  2
LTYPE
  70
4
  0
LTYPE
  5
40F
  2
CONTINUOUS
  70
0
  3
Solid line
  72
65
  73
0
  40
0.0
  0
LTYPE
  5
410
  2
DASHDOT
 70
0
  3
Dash Dot ____ _ ____ _
 72
65
 73
4
 40
2.0
 49
1.25
 49
-0.25
 49
0.25
 49
-0.25
  0
LTYPE
  5
411
  2
DASHED
 70
0
  3
Dashed __ __ __ __ __
 72
65
 73
2
 40
0.75
 49
0.5
 49
-0.25
  0
LTYPE
  5
43B
  2
DOTTED
 70
0
  3
Dotted .  .  .  .
 72
65
 73
2
 40
0.2
 49
0.0
 49
-0.2
  0
ENDTAB
  0
TABLE
  2
STYLE
  70
4
  0
STYLE
  2
KICAD
  70
0
  40
0
  41
1
  42
1
  50
0
  71
0
  3
isocp.shx
  0
STYLE
  2
KICADB
  70
0
  40
0
  41
1
  42
1
  50
0
  71
0
  3
isocp.shx
  0
STYLE
  2
KICADI
  70
0
  40
0
  41
1
  42
1
  50
15
  71
0
  3
isocp.shx
  0
STYLE
  2
KICADBI
  70
0
  40
0
  41
1
  42
1
  50
15
  71
0
  3
isocp.shx
  0
ENDTAB
  0
TABLE
  2
LAYER
  70
2
  0
LAYER
  2
User.Drawings
  70
0
  62
9
  420
12763842
  6
CONTINUOUS
  0
LAYER
  2
Edge.Cuts
  70
0
  62
254
  420
13685453
  6
CONTINUOUS
  0
ENDTAB
  0
ENDSEC
  0
SECTION
  2
ENTITIES
0
CIRCLE
8
User.Drawings
10
113.0999999999999943
20
-77.2999999999999972
40
0.4
0
CIRCLE
8
User.Drawings
10
115.5999999999999943
20
-77.2999999999999972
40
0.4
0
CIRCLE
8
User.Drawings
10
119.5999999999999943
20
-74.2199999999999989
40
0.5
0
CIRCLE
8
User.Drawings
10
119.5999999999999943
20
-76.7599999999999909
40
0.5
0
CIRCLE
8
User.Drawings
10
119.5999999999999943
20
-79.2999999999999972
40
0.5
0
CIRCLE
8
User.Drawings
10
103.6999999999999886
20
-77.0600000000000023
40
0.5
0
CIRCLE
8
User.Drawings
10
103.6999999999999886
20
-79.5999999999999943
40
0.5
0
CIRCLE
8
User.Drawings
10
126.7599999999999909
20
-74.2999999999999972
40
0.5
0
CIRCLE
8
User.Drawings
10
129.2999999999999829
20
-74.2999999999999972
40
0.5
0
CIRCLE
8
User.Drawings
10
131.8400000000000034
20
-74.2999999999999972
40
0.5
0
CIRCLE
8
User.Drawings
10
108.5
20
-76.7999999999999972
40
0.4
0
CIRCLE
8
User.Drawings
10
108.5
20
-79.2999999999999972
40
0.4
0
CIRCLE
8
User.Drawings
10
123.8199999999999932
20
-79.
40
0.5
0
CIRCLE
8
User.Drawings
10
126.3599999999999994
20
-79.
40
0.5
0
CIRCLE
8
User.Drawings
10
128.9000000000000057
20
-79.
40
0.5
0
CIRCLE
8
User.Drawings
10
131.5
20
-94.5
40
1.0999999999999999
0
CIRCLE
8
User.Drawings
10
104.
20
-72.7000000000000028
40
1.0999999999999999
0
CIRCLE
8
User.Drawings
10
104.
20
-94.5
40
1.0999999999999999
0
CIRCLE
8
User.Drawings
10
131.75
20
-98.7299999999999898
40
0.5
0
CIRCLE
8
User.Drawings
10
129.210000000000008
20
-98.7299999999999898
40
0.5
0
CIRCLE
8
User.Drawings
10
126.6699999999999875
20
-98.7299999999999898
40
0.5
0
CIRCLE
8
User.Drawings
10
124.1299999999999955
20
-98.7299999999999898
40
0.5
0
CIRCLE
8
User.Drawings
10
121.5899999999999892
20
-98.7299999999999898
40
0.5
0
CIRCLE
8
User.Drawings
10
119.0499999999999972
20
-98.7299999999999898
40
0.5
0
CIRCLE
8
User.Drawings
10
116.5099999999999909
20
-98.7299999999999898
40
0.5
0
CIRCLE
8
User.Drawings
10
113.9699999999999989
20
-98.7299999999999898
40
0.5
0
CIRCLE
8
User.Drawings
10
111.4299999999999926
20
-98.7299999999999898
40
0.5
0
CIRCLE
8
User.Drawings
10
108.8900000000000006
20
-98.7299999999999898
40
0.5
0
CIRCLE
8
User.Drawings
10
106.3499999999999943
20
-98.7299999999999898
40
0.5
0
CIRCLE
8
User.Drawings
10
103.8100000000000023
20
-98.7299999999999898
40
0.5
0
CIRCLE
8
User.Drawings
10
103.8100000000000023
20
-83.4899999999999949
40
0.5
0
CIRCLE
8
User.Drawings
10
106.3499999999999943
20
-83.4899999999999949
40
0.5
0
CIRCLE
8
User.Drawings
10
108.8900000000000006
20
-83.4899999999999949
40
0.5
0
CIRCLE
8
User.Drawings
10
111.4299999999999926
20
-83.4899999999999949
40
0.5
0
CIRCLE
8
User.Drawings
10
113.9699999999999989
20
-83.4899999999999949
40
0.5
0
CIRCLE
8
User.Drawings
10
116.5099999999999909
20
-83.4899999999999949
40
0.5
0
CIRCLE
8
User.Drawings
10
119.0499999999999972
20
-83.4899999999999949
40
0.5
0
CIRCLE
8
User.Drawings
10
121.5899999999999892
20
-83.4899999999999949
40
0.5
0
CIRCLE
8
User.Drawings
10
124.1299999999999955
20
-83.4899999999999949
40
0.5
0
CIRCLE
8
User.Drawings
10
126.6699999999999875
20
-83.4899999999999949
40
0.5
0
CIRCLE
8
User.Drawings
10
129.210000000000008
20
-83.4899999999999949
40
0.5
0
CIRCLE
8
User.Drawings
10
131.75
20
-83.4899999999999949
40
0.5
0
CIRCLE
8
User.Drawings
10
113.0999999999999943
20
-77.2999999999999972
40
0.4
0
CIRCLE
8
User.Drawings
10
115.5999999999999943
20
-77.2999999999999972
40
0.4
0
CIRCLE
8
User.Drawings
10
119.5999999999999943
20
-74.2199999999999989
40
0.5
0
CIRCLE
8
User.Drawings
10
119.5999999999999943
20
-76.7599999999999909
40
0.5
0
CIRCLE
8
User.Drawings
10
119.5999999999999943
20
-79.2999999999999972
40
0.5
0
CIRCLE
8
User.Drawings
10
103.6999999999999886
20
-77.0600000000000023
40
0.5
0
CIRCLE
8
User.Drawings
10
103.6999999999999886
20
-79.5999999999999943
40
0.5
0
CIRCLE
8
User.Drawings
10
126.7599999999999909
20
-74.2999999999999972
40
0.5
0
CIRCLE
8
User.Drawings
10
129.2999999999999829
20
-74.2999999999999972
40
0.5
0
CIRCLE
8
User.Drawings
10
131.8400000000000034
20
-74.2999999999999972
40
0.5
0
CIRCLE
8
User.Drawings
10
108.5
20
-76.7999999999999972
40
0.4
0
CIRCLE
8
User.Drawings
10
108.5
20
-79.2999999999999972
40
0.4
0
CIRCLE
8
User.Drawings
10
123.8199999999999932
20
-79.
40
0.5
0
CIRCLE
8
User.Drawings
10
126.3599999999999994
20
-79.
40
0.5
0
CIRCLE
8
User.Drawings
10
128.9000000000000057
20
-79.
40
0.5
0
CIRCLE
8
User.Drawings
10
131.5
20
-94.5
40
1.0999989999999999
0
CIRCLE
8
User.Drawings
10
104.
20
-72.7000000000000028
40
1.0999989999999999
0
CIRCLE
8
User.Drawings
10
104.
20
-94.5
40
1.0999989999999999
0
CIRCLE
8
User.Drawings
10
131.75
20
-98.7299999999999898
40
0.5
0
CIRCLE
8
User.Drawings
10
129.210000000000008
20
-98.7299999999999898
40
0.5
0
CIRCLE
8
User.Drawings
10
126.6699999999999875
20
-98.7299999999999898
40
0.5
0
CIRCLE
8
User.Drawings
10
124.1299999999999955
20
-98.7299999999999898
40
0.5
0
CIRCLE
8
User.Drawings
10
121.5899999999999892
20
-98.7299999999999898
40
0.5
0
CIRCLE
8
User.Drawings
10
119.0499999999999972
20
-98.7299999999999898
40
0.5
0
CIRCLE
8
User.Drawings
10
116.5099999999999909
20
-98.7299999999999898
40
0.5
0
CIRCLE
8
User.Drawings
10
113.9699999999999989
20
-98.7299999999999898
40
0.5
0
CIRCLE
8
User.Drawings
10
111.4299999999999926
20
-98.7299999999999898
40
0.5
0
CIRCLE
8
User.Drawings
10
108.8900000000000006
20
-98.7299999999999898
40
0.5
0
CIRCLE
8
User.Drawings
10
106.3499999999999943
20
-98.7299999999999898
40
0.5
0
CIRCLE
8
User.Drawings
10
103.8100000000000023
20
-98.7299999999999898
40
0.5
0
CIRCLE
8
User.Drawings
10
103.8100000000000023
20
-83.4899999999999949
40
0.5
0
CIRCLE
8
User.Drawings
10
106.3499999999999943
20
-83.4899999999999949
40
0.5
0
CIRCLE
8
User.Drawings
10
108.8900000000000006
20
-83.4899999999999949
40
0.5
0
CIRCLE
8
User.Drawings
10
111.4299999999999926
20
-83.4899999999999949
40
0.5
0
CIRCLE
8
User.Drawings
10
113.9699999999999989
20
-83.4899999999999949
40
0.5
0
CIRCLE
8
User.Drawings
10
116.5099999999999909
20
-83.4899999999999949
40
0.5
0
CIRCLE
8
User.Drawings
10
119.0499999999999972
20
-83.4899999999999949
40
0.5
0
CIRCLE
8
User.Drawings
10
121.5899999999999892
20
-83.4899999999999949
40
0.5
0
CIRCLE
8
User.Drawings
10
124.1299999999999955
20
-83.4899999999999949
40
0.5
0
CIRCLE
8
User.Drawings
10
126.6699999999999875
20
-83.4899999999999949
40
0.5
0
CIRCLE
8
User.Drawings
10
129.210000000000008
20
-83.4899999999999949
40
0.5
0
CIRCLE
8
User.Drawings
10
131.75
20
-83.4899999999999949
40
0.5
  0
ENDSEC
  0
EOF
