%TF.GenerationSoftware,KiCad,Pcbnew,10.0.3*%
%TF.CreationDate,2026-07-28T21:09:03-05:00*%
%TF.ProjectId,Motor PCB,4d6f746f-7220-4504-9342-2e6b69636164,rev?*%
%TF.SameCoordinates,Original*%
%TF.FileFunction,Soldermask,Bot*%
%TF.FilePolarity,Negative*%
%FSLAX46Y46*%
G04 Gerber Fmt 4.6, Leading zero omitted, Abs format (unit mm)*
G04 Created by KiCad (PCBNEW 10.0.3) date 2026-07-28 21:09:03*
%MOMM*%
%LPD*%
G01*
G04 APERTURE LIST*
G04 Aperture macros list*
%AMRoundRect*
0 Rectangle with rounded corners*
0 $1 Rounding radius*
0 $2 $3 $4 $5 $6 $7 $8 $9 X,Y pos of 4 corners*
0 Add a 4 corners polygon primitive as box body*
4,1,4,$2,$3,$4,$5,$6,$7,$8,$9,$2,$3,0*
0 Add four circle primitives for the rounded corners*
1,1,$1+$1,$2,$3*
1,1,$1+$1,$4,$5*
1,1,$1+$1,$6,$7*
1,1,$1+$1,$8,$9*
0 Add four rect primitives between the rounded corners*
20,1,$1+$1,$2,$3,$4,$5,0*
20,1,$1+$1,$4,$5,$6,$7,0*
20,1,$1+$1,$6,$7,$8,$9,0*
20,1,$1+$1,$8,$9,$2,$3,0*%
G04 Aperture macros list end*
%ADD10C,2.200000*%
%ADD11R,1.700000X1.700000*%
%ADD12O,1.700000X1.700000*%
%ADD13C,1.700000*%
%ADD14C,1.600000*%
%ADD15RoundRect,0.250000X-0.550000X-0.550000X0.550000X-0.550000X0.550000X0.550000X-0.550000X0.550000X0*%
G04 APERTURE END LIST*
D10*
%TO.C,H3*%
X131500000Y-94500000D03*
%TD*%
%TO.C,H2*%
X104000000Y-94500000D03*
%TD*%
%TO.C,H1*%
X104000000Y-72700000D03*
%TD*%
D11*
%TO.C,J7*%
X131750000Y-98730000D03*
D12*
X129210000Y-98730000D03*
X126670000Y-98730000D03*
X124130000Y-98730000D03*
X121590000Y-98730000D03*
X119050000Y-98730000D03*
X116510000Y-98730000D03*
X113970000Y-98730000D03*
X111430000Y-98730000D03*
X108890000Y-98730000D03*
X106350000Y-98730000D03*
X103810000Y-98730000D03*
%TD*%
%TO.C,J6*%
X131750000Y-83490000D03*
X129210000Y-83490000D03*
X126670000Y-83490000D03*
X124130000Y-83490000D03*
X121590000Y-83490000D03*
X119050000Y-83490000D03*
X116510000Y-83490000D03*
X113970000Y-83490000D03*
X111430000Y-83490000D03*
X108890000Y-83490000D03*
X106350000Y-83490000D03*
D11*
X103810000Y-83490000D03*
%TD*%
%TO.C,J9*%
X123820000Y-79000000D03*
D13*
X126360000Y-79000000D03*
X128900000Y-79000000D03*
%TD*%
D11*
%TO.C,J8*%
X126760000Y-74300000D03*
D13*
X129300000Y-74300000D03*
X131840000Y-74300000D03*
%TD*%
D11*
%TO.C,J5*%
X119600000Y-74220000D03*
D13*
X119600000Y-76760000D03*
X119600000Y-79300000D03*
%TD*%
D11*
%TO.C,J4*%
X103700000Y-77060000D03*
D13*
X103700000Y-79600000D03*
%TD*%
D14*
%TO.C,C2*%
X108500000Y-76800000D03*
X108500000Y-79300000D03*
%TD*%
D15*
%TO.C,C1*%
X113100000Y-77300000D03*
D14*
X115600000Y-77300000D03*
%TD*%
M02*
