%TF.GenerationSoftware,KiCad,Pcbnew,10.0.3*%
%TF.CreationDate,2026-07-28T21:09:03-05:00*%
%TF.ProjectId,Motor PCB,4d6f746f-7220-4504-9342-2e6b69636164,rev?*%
%TF.SameCoordinates,Original*%
%TF.FileFunction,Legend,Bot*%
%TF.FilePolarity,Positive*%
%FSLAX46Y46*%
G04 Gerber Fmt 4.6, Leading zero omitted, Abs format (unit mm)*
G04 Created by KiCad (PCBNEW 10.0.3) date 2026-07-28 21:09:03*
%MOMM*%
%LPD*%
G01*
G04 APERTURE LIST*
%ADD10C,0.150000*%
%ADD11C,0.120000*%
G04 APERTURE END LIST*
D10*
X122133333Y-95554819D02*
X122133333Y-96269104D01*
X122133333Y-96269104D02*
X122180952Y-96411961D01*
X122180952Y-96411961D02*
X122276190Y-96507200D01*
X122276190Y-96507200D02*
X122419047Y-96554819D01*
X122419047Y-96554819D02*
X122514285Y-96554819D01*
X121752380Y-95554819D02*
X121085714Y-95554819D01*
X121085714Y-95554819D02*
X121514285Y-96554819D01*
X104143333Y-84976819D02*
X104143333Y-85691104D01*
X104143333Y-85691104D02*
X104190952Y-85833961D01*
X104190952Y-85833961D02*
X104286190Y-85929200D01*
X104286190Y-85929200D02*
X104429047Y-85976819D01*
X104429047Y-85976819D02*
X104524285Y-85976819D01*
X103238571Y-84976819D02*
X103429047Y-84976819D01*
X103429047Y-84976819D02*
X103524285Y-85024438D01*
X103524285Y-85024438D02*
X103571904Y-85072057D01*
X103571904Y-85072057D02*
X103667142Y-85214914D01*
X103667142Y-85214914D02*
X103714761Y-85405390D01*
X103714761Y-85405390D02*
X103714761Y-85786342D01*
X103714761Y-85786342D02*
X103667142Y-85881580D01*
X103667142Y-85881580D02*
X103619523Y-85929200D01*
X103619523Y-85929200D02*
X103524285Y-85976819D01*
X103524285Y-85976819D02*
X103333809Y-85976819D01*
X103333809Y-85976819D02*
X103238571Y-85929200D01*
X103238571Y-85929200D02*
X103190952Y-85881580D01*
X103190952Y-85881580D02*
X103143333Y-85786342D01*
X103143333Y-85786342D02*
X103143333Y-85548247D01*
X103143333Y-85548247D02*
X103190952Y-85453009D01*
X103190952Y-85453009D02*
X103238571Y-85405390D01*
X103238571Y-85405390D02*
X103333809Y-85357771D01*
X103333809Y-85357771D02*
X103524285Y-85357771D01*
X103524285Y-85357771D02*
X103619523Y-85405390D01*
X103619523Y-85405390D02*
X103667142Y-85453009D01*
X103667142Y-85453009D02*
X103714761Y-85548247D01*
%TO.C,J7*%
D11*
X102480000Y-100060000D02*
X102480000Y-97400000D01*
X130480000Y-97400000D02*
X102480000Y-97400000D01*
X130480000Y-100060000D02*
X102480000Y-100060000D01*
X130480000Y-100060000D02*
X130480000Y-97400000D01*
X131750000Y-100060000D02*
X133080000Y-100060000D01*
X133080000Y-100060000D02*
X133080000Y-98730000D01*
%TO.C,J6*%
X133080000Y-82160000D02*
X133080000Y-84820000D01*
X105080000Y-84820000D02*
X133080000Y-84820000D01*
X105080000Y-82160000D02*
X133080000Y-82160000D01*
X105080000Y-82160000D02*
X105080000Y-84820000D01*
X103810000Y-82160000D02*
X102480000Y-82160000D01*
X102480000Y-82160000D02*
X102480000Y-83490000D01*
%TD*%
M02*
