M48
; DRILL file KiCad 10.0.3 date 2026-07-28T21:08:20
; FORMAT={-:-/ absolute / metric / decimal}
; #@! TF.CreationDate,2026-07-28T21:08:20-05:00
; #@! TF.GenerationSoftware,Kicad,Pcbnew,10.0.3
; #@! TF.FileFunction,Plated,1,2,PTH
FMAT,2
METRIC
; #@! TA.AperFunction,Plated,PTH,ComponentDrill
T1C0.800
; #@! TA.AperFunction,Plated,PTH,ComponentDrill
T2C1.000
%
G90
G05
T1
X108.5Y-76.8
X108.5Y-79.3
X113.1Y-77.3
X115.6Y-77.3
T2
X103.7Y-77.06
X103.7Y-79.6
X103.81Y-83.49
X103.81Y-98.73
X106.35Y-83.49
X106.35Y-98.73
X108.89Y-83.49
X108.89Y-98.73
X111.43Y-83.49
X111.43Y-98.73
X113.97Y-83.49
X113.97Y-98.73
X116.51Y-83.49
X116.51Y-98.73
X119.05Y-83.49
X119.05Y-98.73
X119.6Y-74.22
X119.6Y-76.76
X119.6Y-79.3
X121.59Y-83.49
X121.59Y-98.73
X123.82Y-79.0
X124.13Y-83.49
X124.13Y-98.73
X126.36Y-79.0
X126.67Y-83.49
X126.67Y-98.73
X126.76Y-74.3
X128.9Y-79.0
X129.21Y-83.49
X129.21Y-98.73
X129.3Y-74.3
X131.75Y-83.49
X131.75Y-98.73
X131.84Y-74.3
M30
