%TF.GenerationSoftware,KiCad,Pcbnew,10.0.3*%
%TF.CreationDate,2026-07-28T21:09:03-05:00*%
%TF.ProjectId,Motor PCB,4d6f746f-7220-4504-9342-2e6b69636164,rev?*%
%TF.SameCoordinates,Original*%
%TF.FileFunction,Copper,L2,Bot*%
%TF.FilePolarity,Positive*%
%FSLAX46Y46*%
G04 Gerber Fmt 4.6, Leading zero omitted, Abs format (unit mm)*
G04 Created by KiCad (PCBNEW 10.0.3) date 2026-07-28 21:09:03*
%MOMM*%
%LPD*%
G01*
G04 APERTURE LIST*
G04 Aperture macros list*
%AMRoundRect*
0 Rectangle with rounded corners*
0 $1 Rounding radius*
0 $2 $3 $4 $5 $6 $7 $8 $9 X,Y pos of 4 corners*
0 Add a 4 corners polygon primitive as box body*
4,1,4,$2,$3,$4,$5,$6,$7,$8,$9,$2,$3,0*
0 Add four circle primitives for the rounded corners*
1,1,$1+$1,$2,$3*
1,1,$1+$1,$4,$5*
1,1,$1+$1,$6,$7*
1,1,$1+$1,$8,$9*
0 Add four rect primitives between the rounded corners*
20,1,$1+$1,$2,$3,$4,$5,0*
20,1,$1+$1,$4,$5,$6,$7,0*
20,1,$1+$1,$6,$7,$8,$9,0*
20,1,$1+$1,$8,$9,$2,$3,0*%
G04 Aperture macros list end*
%TA.AperFunction,ComponentPad*%
%ADD10R,1.700000X1.700000*%
%TD*%
%TA.AperFunction,ComponentPad*%
%ADD11O,1.700000X1.700000*%
%TD*%
%TA.AperFunction,ComponentPad*%
%ADD12C,1.700000*%
%TD*%
%TA.AperFunction,ComponentPad*%
%ADD13C,1.600000*%
%TD*%
%TA.AperFunction,ComponentPad*%
%ADD14RoundRect,0.250000X-0.550000X-0.550000X0.550000X-0.550000X0.550000X0.550000X-0.550000X0.550000X0*%
%TD*%
G04 APERTURE END LIST*
D10*
%TO.P,J7,1,Pin_1_1*%
%TO.N,/\u002AD9*%
X131750000Y-98730000D03*
D11*
%TO.P,J7,2,Pin_2_2*%
%TO.N,/D8*%
X129210000Y-98730000D03*
%TO.P,J7,3,Pin_3_3*%
%TO.N,/D7*%
X126670000Y-98730000D03*
%TO.P,J7,4,Pin_4_4*%
%TO.N,/\u002AD6*%
X124130000Y-98730000D03*
%TO.P,J7,5,Pin_5_5*%
%TO.N,/\u002AD5*%
X121590000Y-98730000D03*
%TO.P,J7,6,Pin_6_6*%
%TO.N,/D4*%
X119050000Y-98730000D03*
%TO.P,J7,7,Pin_7_7*%
%TO.N,/\u002AD3*%
X116510000Y-98730000D03*
%TO.P,J7,8,Pin_8_8*%
%TO.N,/D2*%
X113970000Y-98730000D03*
%TO.P,J7,9,Pin_9_9*%
%TO.N,GND*%
X111430000Y-98730000D03*
%TO.P,J7,10,Pin_10_10*%
%TO.N,unconnected-(J7-Pin_10-Pad10)*%
X108890000Y-98730000D03*
%TO.P,J7,11,Pin_11_11*%
%TO.N,/RX*%
X106350000Y-98730000D03*
%TO.P,J7,12,Pin_12_12*%
%TO.N,/TX*%
X103810000Y-98730000D03*
%TD*%
%TO.P,J6,12,Pin_12_12*%
%TO.N,/SS{slash}\u002AD10*%
X131750000Y-83490000D03*
%TO.P,J6,11,Pin_11_11*%
%TO.N,/MOSI{slash}\u002AD11*%
X129210000Y-83490000D03*
%TO.P,J6,10,Pin_10_10*%
%TO.N,/MISO{slash}D12*%
X126670000Y-83490000D03*
%TO.P,J6,9,Pin_9_9*%
%TO.N,/SCK{slash}D13*%
X124130000Y-83490000D03*
%TO.P,J6,8,Pin_8_8*%
%TO.N,/A0*%
X121590000Y-83490000D03*
%TO.P,J6,7,Pin_7_7*%
%TO.N,/A1*%
X119050000Y-83490000D03*
%TO.P,J6,6,Pin_6_6*%
%TO.N,/A2*%
X116510000Y-83490000D03*
%TO.P,J6,5,Pin_5_5*%
%TO.N,/A3*%
X113970000Y-83490000D03*
%TO.P,J6,4,Pin_4_4*%
%TO.N,+5V*%
X111430000Y-83490000D03*
%TO.P,J6,3,Pin_3_3*%
%TO.N,unconnected-(J6-Pin_3-Pad3)*%
X108890000Y-83490000D03*
%TO.P,J6,2,Pin_2_2*%
%TO.N,GND*%
X106350000Y-83490000D03*
D10*
%TO.P,J6,1,Pin_1_1*%
%TO.N,VDC*%
X103810000Y-83490000D03*
%TD*%
%TO.P,J9,1,Pin_1_1*%
%TO.N,Net-(J5-Pin_1)*%
X123820000Y-79000000D03*
D12*
%TO.P,J9,2,Pin_2_2*%
%TO.N,GND*%
X126360000Y-79000000D03*
%TO.P,J9,3,Pin_3_3*%
%TO.N,/MOSI{slash}\u002AD11*%
X128900000Y-79000000D03*
%TD*%
D10*
%TO.P,J8,1,Pin_1_1*%
%TO.N,Net-(J5-Pin_1)*%
X126760000Y-74300000D03*
D12*
%TO.P,J8,2,Pin_2_2*%
%TO.N,GND*%
X129300000Y-74300000D03*
%TO.P,J8,3,Pin_3_3*%
%TO.N,/SS{slash}\u002AD10*%
X131840000Y-74300000D03*
%TD*%
D10*
%TO.P,J5,1,Pin_1_1*%
%TO.N,Net-(J5-Pin_1)*%
X119600000Y-74220000D03*
D12*
%TO.P,J5,2,Pin_2_2*%
%TO.N,GND*%
X119600000Y-76760000D03*
%TO.P,J5,3,Pin_3_3*%
%TO.N,/\u002AD9*%
X119600000Y-79300000D03*
%TD*%
D10*
%TO.P,J4,1,Pin_1_1*%
%TO.N,GND*%
X103700000Y-77060000D03*
D12*
%TO.P,J4,2,Pin_2_2*%
%TO.N,+5V*%
X103700000Y-79600000D03*
%TD*%
D13*
%TO.P,C2,1*%
%TO.N,+5V*%
X108500000Y-76800000D03*
%TO.P,C2,2*%
%TO.N,Net-(J5-Pin_1)*%
X108500000Y-79300000D03*
%TD*%
D14*
%TO.P,C1,1*%
%TO.N,+5V*%
X113100000Y-77300000D03*
D13*
%TO.P,C1,2*%
%TO.N,Net-(J5-Pin_1)*%
X115600000Y-77300000D03*
%TD*%
M02*
