%TF.GenerationSoftware,KiCad,Pcbnew,10.0.3*%
%TF.CreationDate,2026-07-28T21:09:03-05:00*%
%TF.ProjectId,Motor PCB,4d6f746f-7220-4504-9342-2e6b69636164,rev?*%
%TF.SameCoordinates,Original*%
%TF.FileFunction,Copper,L1,Top*%
%TF.FilePolarity,Positive*%
%FSLAX46Y46*%
G04 Gerber Fmt 4.6, Leading zero omitted, Abs format (unit mm)*
G04 Created by KiCad (PCBNEW 10.0.3) date 2026-07-28 21:09:03*
%MOMM*%
%LPD*%
G01*
G04 APERTURE LIST*
G04 Aperture macros list*
%AMRoundRect*
0 Rectangle with rounded corners*
0 $1 Rounding radius*
0 $2 $3 $4 $5 $6 $7 $8 $9 X,Y pos of 4 corners*
0 Add a 4 corners polygon primitive as box body*
4,1,4,$2,$3,$4,$5,$6,$7,$8,$9,$2,$3,0*
0 Add four circle primitives for the rounded corners*
1,1,$1+$1,$2,$3*
1,1,$1+$1,$4,$5*
1,1,$1+$1,$6,$7*
1,1,$1+$1,$8,$9*
0 Add four rect primitives between the rounded corners*
20,1,$1+$1,$2,$3,$4,$5,0*
20,1,$1+$1,$4,$5,$6,$7,0*
20,1,$1+$1,$6,$7,$8,$9,0*
20,1,$1+$1,$8,$9,$2,$3,0*%
G04 Aperture macros list end*
%TA.AperFunction,ComponentPad*%
%ADD10R,1.700000X1.700000*%
%TD*%
%TA.AperFunction,ComponentPad*%
%ADD11O,1.700000X1.700000*%
%TD*%
%TA.AperFunction,ComponentPad*%
%ADD12C,1.700000*%
%TD*%
%TA.AperFunction,ComponentPad*%
%ADD13C,1.600000*%
%TD*%
%TA.AperFunction,ComponentPad*%
%ADD14RoundRect,0.250000X-0.550000X-0.550000X0.550000X-0.550000X0.550000X0.550000X-0.550000X0.550000X0*%
%TD*%
%TA.AperFunction,Conductor*%
%ADD15C,0.200000*%
%TD*%
G04 APERTURE END LIST*
D10*
%TO.P,J7,1,Pin_1_1*%
%TO.N,/\u002AD9*%
X131750000Y-98730000D03*
D11*
%TO.P,J7,2,Pin_2_2*%
%TO.N,/D8*%
X129210000Y-98730000D03*
%TO.P,J7,3,Pin_3_3*%
%TO.N,/D7*%
X126670000Y-98730000D03*
%TO.P,J7,4,Pin_4_4*%
%TO.N,/\u002AD6*%
X124130000Y-98730000D03*
%TO.P,J7,5,Pin_5_5*%
%TO.N,/\u002AD5*%
X121590000Y-98730000D03*
%TO.P,J7,6,Pin_6_6*%
%TO.N,/D4*%
X119050000Y-98730000D03*
%TO.P,J7,7,Pin_7_7*%
%TO.N,/\u002AD3*%
X116510000Y-98730000D03*
%TO.P,J7,8,Pin_8_8*%
%TO.N,/D2*%
X113970000Y-98730000D03*
%TO.P,J7,9,Pin_9_9*%
%TO.N,GND*%
X111430000Y-98730000D03*
%TO.P,J7,10,Pin_10_10*%
%TO.N,unconnected-(J7-Pin_10-Pad10)*%
X108890000Y-98730000D03*
%TO.P,J7,11,Pin_11_11*%
%TO.N,/RX*%
X106350000Y-98730000D03*
%TO.P,J7,12,Pin_12_12*%
%TO.N,/TX*%
X103810000Y-98730000D03*
%TD*%
%TO.P,J6,12,Pin_12_12*%
%TO.N,/SS{slash}\u002AD10*%
X131750000Y-83490000D03*
%TO.P,J6,11,Pin_11_11*%
%TO.N,/MOSI{slash}\u002AD11*%
X129210000Y-83490000D03*
%TO.P,J6,10,Pin_10_10*%
%TO.N,/MISO{slash}D12*%
X126670000Y-83490000D03*
%TO.P,J6,9,Pin_9_9*%
%TO.N,/SCK{slash}D13*%
X124130000Y-83490000D03*
%TO.P,J6,8,Pin_8_8*%
%TO.N,/A0*%
X121590000Y-83490000D03*
%TO.P,J6,7,Pin_7_7*%
%TO.N,/A1*%
X119050000Y-83490000D03*
%TO.P,J6,6,Pin_6_6*%
%TO.N,/A2*%
X116510000Y-83490000D03*
%TO.P,J6,5,Pin_5_5*%
%TO.N,/A3*%
X113970000Y-83490000D03*
%TO.P,J6,4,Pin_4_4*%
%TO.N,+5V*%
X111430000Y-83490000D03*
%TO.P,J6,3,Pin_3_3*%
%TO.N,unconnected-(J6-Pin_3-Pad3)*%
X108890000Y-83490000D03*
%TO.P,J6,2,Pin_2_2*%
%TO.N,GND*%
X106350000Y-83490000D03*
D10*
%TO.P,J6,1,Pin_1_1*%
%TO.N,VDC*%
X103810000Y-83490000D03*
%TD*%
%TO.P,J9,1,Pin_1_1*%
%TO.N,Net-(J5-Pin_1)*%
X123820000Y-79000000D03*
D12*
%TO.P,J9,2,Pin_2_2*%
%TO.N,GND*%
X126360000Y-79000000D03*
%TO.P,J9,3,Pin_3_3*%
%TO.N,/MOSI{slash}\u002AD11*%
X128900000Y-79000000D03*
%TD*%
D10*
%TO.P,J8,1,Pin_1_1*%
%TO.N,Net-(J5-Pin_1)*%
X126760000Y-74300000D03*
D12*
%TO.P,J8,2,Pin_2_2*%
%TO.N,GND*%
X129300000Y-74300000D03*
%TO.P,J8,3,Pin_3_3*%
%TO.N,/SS{slash}\u002AD10*%
X131840000Y-74300000D03*
%TD*%
D10*
%TO.P,J5,1,Pin_1_1*%
%TO.N,Net-(J5-Pin_1)*%
X119600000Y-74220000D03*
D12*
%TO.P,J5,2,Pin_2_2*%
%TO.N,GND*%
X119600000Y-76760000D03*
%TO.P,J5,3,Pin_3_3*%
%TO.N,/\u002AD9*%
X119600000Y-79300000D03*
%TD*%
D10*
%TO.P,J4,1,Pin_1_1*%
%TO.N,GND*%
X103700000Y-77060000D03*
D12*
%TO.P,J4,2,Pin_2_2*%
%TO.N,+5V*%
X103700000Y-79600000D03*
%TD*%
D13*
%TO.P,C2,1*%
%TO.N,+5V*%
X108500000Y-76800000D03*
%TO.P,C2,2*%
%TO.N,Net-(J5-Pin_1)*%
X108500000Y-79300000D03*
%TD*%
D14*
%TO.P,C1,1*%
%TO.N,+5V*%
X113100000Y-77300000D03*
D13*
%TO.P,C1,2*%
%TO.N,Net-(J5-Pin_1)*%
X115600000Y-77300000D03*
%TD*%
%TO.N,+5V*%
D15*
X112580000Y-84640000D02*
X111430000Y-83490000D01*
X114446346Y-84640000D02*
X112580000Y-84640000D01*
X115120000Y-83966346D02*
X114446346Y-84640000D01*
X115120000Y-81913654D02*
X115120000Y-83966346D01*
X119123654Y-77910000D02*
X115120000Y-81913654D01*
X119864314Y-77910000D02*
X119123654Y-77910000D01*
X122504314Y-80550000D02*
X119864314Y-77910000D01*
X126436346Y-80550000D02*
X122504314Y-80550000D01*
X127510000Y-79476346D02*
X126436346Y-80550000D01*
X127510000Y-78523654D02*
X127510000Y-79476346D01*
X130450000Y-75583654D02*
X127510000Y-78523654D01*
X130450000Y-73823654D02*
X130450000Y-75583654D01*
X129696346Y-73070000D02*
X130450000Y-73823654D01*
X117330000Y-73070000D02*
X129696346Y-73070000D01*
X113100000Y-77300000D02*
X117330000Y-73070000D01*
%TO.N,GND*%
X122670000Y-80150000D02*
X125210000Y-80150000D01*
X119600000Y-77080000D02*
X122670000Y-80150000D01*
X125210000Y-80150000D02*
X126360000Y-79000000D01*
X119600000Y-76760000D02*
X119600000Y-77080000D01*
X107500000Y-82340000D02*
X106350000Y-83490000D01*
X114020000Y-82340000D02*
X107500000Y-82340000D01*
X119600000Y-76760000D02*
X114020000Y-82340000D01*
%TO.N,Net-(J5-Pin_1)*%
X118680000Y-74220000D02*
X119600000Y-74220000D01*
X115600000Y-77300000D02*
X118680000Y-74220000D01*
X123820000Y-78440000D02*
X123820000Y-79000000D01*
X119600000Y-74220000D02*
X123820000Y-78440000D01*
X126760000Y-76060000D02*
X123820000Y-79000000D01*
X126760000Y-74300000D02*
X126760000Y-76060000D01*
%TO.N,GND*%
X126360000Y-77240000D02*
X126360000Y-79000000D01*
X129300000Y-74300000D02*
X126360000Y-77240000D01*
%TO.N,/MOSI{slash}\u002AD11*%
X128900000Y-83200000D02*
X128900000Y-79000000D01*
X129200000Y-83500000D02*
X128900000Y-83200000D01*
X129210000Y-83490000D02*
X129200000Y-83500000D01*
%TO.N,/SS{slash}\u002AD10*%
X131750000Y-74390000D02*
X131840000Y-74300000D01*
X131750000Y-83490000D02*
X131750000Y-74390000D01*
%TO.N,/\u002AD9*%
X122740000Y-89720000D02*
X122740000Y-82440000D01*
X131750000Y-98730000D02*
X122740000Y-89720000D01*
X122740000Y-82440000D02*
X119600000Y-79300000D01*
%TO.N,GND*%
X110280000Y-99880000D02*
X111430000Y-98730000D01*
X108413654Y-99880000D02*
X110280000Y-99880000D01*
X107740000Y-99206346D02*
X108413654Y-99880000D01*
X107740000Y-87180000D02*
X107740000Y-99206346D01*
X105200000Y-84640000D02*
X107740000Y-87180000D01*
X105200000Y-84640000D02*
X106350000Y-83490000D01*
%TO.N,+5V*%
X113100000Y-77300000D02*
X109000000Y-77300000D01*
X109000000Y-77300000D02*
X108500000Y-76800000D01*
%TO.N,Net-(J5-Pin_1)*%
X108500000Y-79300000D02*
X113600000Y-79300000D01*
X113600000Y-79300000D02*
X115600000Y-77300000D01*
%TO.N,GND*%
X102550000Y-78210000D02*
X102550000Y-84530000D01*
X102550000Y-84530000D02*
X102660000Y-84640000D01*
X102660000Y-84640000D02*
X105200000Y-84640000D01*
X103700000Y-77060000D02*
X102550000Y-78210000D01*
%TO.N,+5V*%
X106600000Y-76800000D02*
X108500000Y-76800000D01*
X103800000Y-79600000D02*
X106600000Y-76800000D01*
X103700000Y-79600000D02*
X103800000Y-79600000D01*
%TD*%
M02*
